<?xml version="1.0" encoding="UTF-8"?>
<!DOCTYPE svg PUBLIC "-//W3C//DTD SVG 1.1//EN" "http://www.w3.org/Graphics/SVG/1.1/DTD/svg11.dtd">
<!-- Creator: CorelDRAW 2018 (64-Bit) -->
<svg xmlns="http://www.w3.org/2000/svg" xml:space="preserve" width="32mm" height="32mm" version="1.1" style="shape-rendering:geometricPrecision; text-rendering:geometricPrecision; image-rendering:optimizeQuality; fill-rule:evenodd; clip-rule:evenodd"
viewBox="0 0 3200 3200"
 xmlns:xlink="http://www.w3.org/1999/xlink">
 <defs>
  <style type="text/css">
   <![CDATA[
    .fil0 {fill:red}
   ]]>
  </style>
 </defs>
 <g id="Layer_x0020_1">
  <metadata id="CorelCorpID_0Corel-Layer"/>
  <path class="fil0" d="M68.11 989.95c0,763.1 799.92,1159.74 1129.66,1591.79 89.85,117.71 356.08,369.24 393.68,530.58l34.22 0c9.16,-109.95 273.86,-412.48 363.5,-509.42 249.44,-269.67 692.61,-642.13 886.18,-893.88 211.86,-275.58 256.54,-440.78 256.54,-787.54 0,-226.29 -124.63,-414.56 -260.79,-543.68 -34.47,-32.67 -54.4,-48.24 -93.58,-77.57 -205.53,-153.86 -488.67,-262.76 -761.06,-186.08 -253.91,71.48 -309.14,187.25 -407.91,259.63 -76.33,-51.13 -74.6,-95.02 -250.98,-194.03 -229.14,-128.62 -486.83,-114.83 -719.36,-6.09 -106.03,49.59 -191.16,117.47 -276.93,185.18 -178.71,141.04 -293.17,409.67 -293.17,631.11z"/>
 </g>
</svg>
