<?xml version="1.0" encoding="UTF-8"?>
<!DOCTYPE svg PUBLIC "-//W3C//DTD SVG 1.1//EN" "http://www.w3.org/Graphics/SVG/1.1/DTD/svg11.dtd">
<!-- Creator: CorelDRAW 2018 (64-Bit) -->
<svg xmlns="http://www.w3.org/2000/svg" xml:space="preserve" width="32mm" height="32mm" version="1.1" style="shape-rendering:geometricPrecision; text-rendering:geometricPrecision; image-rendering:optimizeQuality; fill-rule:evenodd; clip-rule:evenodd"
viewBox="0 0 3200 3200"
 xmlns:xlink="http://www.w3.org/1999/xlink">
 <defs>
  <style type="text/css">
   <![CDATA[
    .fil0 {fill:black}
   ]]>
  </style>
 </defs>
 <g id="Layer_x0020_1">
  <metadata id="CorelCorpID_0Corel-Layer"/>
  <path class="fil0" d="M1076.3 2447.25c122,0 223.1,-37.9 319.89,-90.91 51.87,-28.4 49.91,-35.7 90.89,-63.13 -33.46,402.13 -321.27,684.62 -770.22,684.62l0 102.7 1762.96 0 0 -119.8c-416.33,0 -778.21,-240.28 -787.35,-650.42 109.03,57.7 210.17,136.94 376.56,136.94 271.84,0 593.68,-143.97 718.47,-359.84 111.45,-192.8 111.51,-354.1 0,-546.91 -100.05,-173.01 -239.94,-266.27 -381.21,-371.89 -756.67,-565.9 -753.3,-990.29 -833.62,-1049.14 0,309.71 -462.35,734.96 -688.56,920.34 -189.61,155.4 -287.79,191.67 -424.33,380.12 -31.13,42.98 -72.88,119.43 -95.95,177.92 -96.42,244.61 8.66,583.83 290.06,724.08 122.43,61.04 246.05,125.32 422.41,125.32z"/>
 </g>
</svg>
