<?xml version="1.0" encoding="UTF-8"?>
<!DOCTYPE svg PUBLIC "-//W3C//DTD SVG 1.1//EN" "http://www.w3.org/Graphics/SVG/1.1/DTD/svg11.dtd">
<!-- Creator: CorelDRAW 2018 (64-Bit) -->
<svg xmlns="http://www.w3.org/2000/svg" xml:space="preserve" width="32mm" height="32mm" version="1.1" style="shape-rendering:geometricPrecision; text-rendering:geometricPrecision; image-rendering:optimizeQuality; fill-rule:evenodd; clip-rule:evenodd"
viewBox="0 0 3200 3200"
 xmlns:xlink="http://www.w3.org/1999/xlink">
 <defs>
  <style type="text/css">
   <![CDATA[
    .fil0 {fill:black}
   ]]>
  </style>
 </defs>
 <g id="Layer_x0020_1">
  <metadata id="CorelCorpID_0Corel-Layer"/>
  <path class="fil0" d="M900.85 788.11c0,249.73 4.81,142.58 51.35,342.31 -247.52,-57.67 -532.52,12.26 -697.02,193.02 -467.93,514.27 -1.41,1176.26 423.16,1176.26 519.46,0 402.69,-104.56 787.34,-308.09 -34.55,415.19 -274.11,770.22 -753.1,770.22l0 102.69 1780.06 0 0 -119.79c-169.53,-3.78 -438.48,-149.46 -534.89,-235.34 -128.07,-114.07 -252.45,-281.76 -252.45,-517.78 267.59,179.19 358.64,308.09 770.21,308.09 534.77,0 907.85,-724.27 475.34,-1159.96 -195.59,-197.02 -420.05,-274.03 -697.83,-209.32 54.72,-234.94 51.35,-53.47 51.35,-376.55 0,-361.44 -580.21,-912.28 -1181.53,-428.42 -97.82,78.72 -221.99,284.2 -221.99,462.66z"/>
 </g>
</svg>
